<svg xmlns="http://www.w3.org/2000/svg" width="20" height="18" fill="none"><path fill="#000" fill-rule="evenodd" d="m11.637 3.29-.002.002a5.457 5.457 0 0 0-.394.643l-1.232 2.358-1.246-2.35a6.401 6.401 0 0 0-.403-.657c-.617-.866-1.582-1.72-3.047-1.72-1.1 0-2.084.446-2.801 1.26-.7.796-1.112 1.89-1.112 3.102 0 1.246.467 2.485 1.715 3.97 1.154 1.376 2.844 2.82 4.953 4.616l.001.001.327.28c.516.44 1.05.894 1.604 1.375.555-.48 1.088-.936 1.604-1.376l.327-.279h.001c2.11-1.797 3.799-3.241 4.953-4.616C18.133 8.412 18.6 7.173 18.6 5.927c0-1.213-.412-2.307-1.112-3.103a3.665 3.665 0 0 0-2.8-1.259c-1.468 0-2.434.857-3.051 1.724Zm6.902-1.39A5.065 5.065 0 0 0 14.687.166c-1.793 0-3.028.913-3.818 1.835A6.846 6.846 0 0 0 10 3.287a7.803 7.803 0 0 0-.496-.808 6.72 6.72 0 0 0-.374-.48C8.34 1.079 7.105.167 5.312.167c-1.5 0-2.867.617-3.851 1.734C.52 2.97 0 4.4 0 5.928c0 1.664.648 3.21 2.043 4.87 1.246 1.485 3.039 3.012 5.117 4.782l.329.28c.671.573 1.365 1.165 2.097 1.806l.027.023c.11.098.25.145.387.145a.581.581 0 0 0 .387-.145l.027-.023c.732-.64 1.426-1.233 2.097-1.806l.329-.28c2.078-1.77 3.87-3.297 5.117-4.781C19.352 9.139 20 7.592 20 5.928 20 4.4 19.48 2.97 18.54 1.9Z" clip-rule="evenodd"/></svg>