<svg xmlns="http://www.w3.org/2000/svg" width="20" height="18" fill="none"><path fill="#000" fill-rule="evenodd" d="M18.54 1.9A5.065 5.065 0 0 0 14.687.166c-1.794 0-3.03.913-3.82 1.835A6.846 6.846 0 0 0 10 3.287a7.803 7.803 0 0 0-.495-.808 6.72 6.72 0 0 0-.374-.48C8.34 1.079 7.105.167 5.312.167c-1.5 0-2.867.617-3.851 1.734C.52 2.97 0 4.4 0 5.928c0 1.664.648 3.21 2.043 4.87 1.246 1.485 3.039 3.012 5.117 4.782l.329.28c.671.573 1.365 1.165 2.097 1.806l.027.023c.11.098.25.145.387.145a.581.581 0 0 0 .387-.145l.027-.023c.732-.64 1.426-1.233 2.097-1.806l.329-.28c2.078-1.77 3.87-3.297 5.117-4.781C19.352 9.139 20 7.592 20 5.928 20 4.4 19.48 2.97 18.54 1.9Z" clip-rule="evenodd"/></svg>